<svg xmlns="http://www.w3.org/2000/svg" xmlns:svg="http://www.w3.org/2000/svg" id="svg8" width="400" height="400" version="1.1" viewBox="0 0 105.833 105.833"><defs id="defs2"><rect id="rect1573" width="148.923" height="83.816" x="-32.928" y="70.345"/><rect id="rect1481" width="111.505" height="90.551" x="223.384" y="239.474"/><rect id="rect1226" width="85.687" height="74.461" x="86.809" y="77.829"/><rect id="rect994" width="119.363" height="40.411" x="37.418" y="193.45"/><marker style="overflow:visible" id="Arrow1Lend" orient="auto" refX="0" refY="0"><path style="fill:#000;fill-opacity:1;fill-rule:evenodd;stroke:none;stroke-width:1pt;stroke-opacity:1" id="path1819" d="M 0,0 5,-5 -12.5,0 5,5 Z" transform="matrix(-0.8,0,0,-0.8,-10,0)"/></marker><rect id="rect133" width="192.012" height="60.476" x="6.048" y="117.929"/><rect id="rect133-8" width="192.012" height="60.476" x="6.048" y="117.929"/><rect id="rect245" width="192.012" height="60.476" x="6.048" y="117.929"/><rect id="rect133-8-3" width="192.012" height="60.476" x="6.048" y="117.929"/><rect id="rect373" width="192.012" height="60.476" x="6.048" y="117.929"/><rect id="rect133-8-6" width="192.012" height="60.476" x="6.048" y="117.929"/><rect id="rect2171" width="192.012" height="60.476" x="6.048" y="117.929"/><rect id="rect133-8-3-5" width="192.012" height="60.476" x="6.048" y="117.929"/><rect id="rect2213" width="192.012" height="60.476" x="6.048" y="117.929"/><rect id="rect133-8-6-5" width="192.012" height="60.476" x="6.048" y="117.929"/><rect id="rect1007" width="192.012" height="60.476" x="6.048" y="117.929"/><rect id="rect133-8-3-4" width="192.012" height="60.476" x="6.048" y="117.929"/><rect id="rect1043" width="192.012" height="60.476" x="6.048" y="117.929"/><rect id="rect133-8-3-4-3" width="192.012" height="60.476" x="6.048" y="117.929"/><rect id="rect1124" width="192.012" height="60.476" x="6.048" y="117.929"/><rect id="rect133-8-3-4-7" width="192.012" height="60.476" x="6.048" y="117.929"/><rect id="rect1083" width="192.012" height="60.476" x="6.048" y="117.929"/><rect id="rect133-8-3-4-3-4" width="192.012" height="60.476" x="6.048" y="117.929"/><rect id="rect1086" width="192.012" height="60.476" x="6.048" y="117.929"/><rect id="rect994-1" width="119.363" height="40.411" x="37.418" y="193.45"/><rect id="rect1239" width="119.363" height="40.411" x="37.418" y="193.45"/><rect id="rect994-9" width="119.363" height="40.411" x="37.418" y="193.45"/><rect id="rect1326" width="119.363" height="40.411" x="37.418" y="193.45"/><rect id="rect994-1-2" width="119.363" height="40.411" x="37.418" y="193.45"/><rect id="rect1329" width="119.363" height="40.411" x="37.418" y="193.45"/><rect id="rect994-9-7" width="119.363" height="40.411" x="37.418" y="193.45"/><rect id="rect1494" width="119.363" height="40.411" x="37.418" y="193.45"/><rect id="rect994-9-7-3" width="119.363" height="40.411" x="37.418" y="193.45"/><rect id="rect1586" width="119.363" height="40.411" x="37.418" y="193.45"/><rect id="rect994-9-7-7" width="119.363" height="40.411" x="37.418" y="193.45"/><rect id="rect1101" width="119.363" height="40.411" x="37.418" y="193.45"/><rect id="rect994-9-7-7-0" width="119.363" height="40.411" x="37.418" y="193.45"/><rect id="rect1236" width="119.363" height="40.411" x="37.418" y="193.45"/><rect id="rect994-1-3" width="119.363" height="40.411" x="37.418" y="193.45"/><rect id="rect1370" width="119.363" height="40.411" x="37.418" y="193.45"/><rect id="rect994-1-3-9" width="119.363" height="40.411" x="37.418" y="193.45"/><rect id="rect1457" width="119.363" height="40.411" x="37.418" y="193.45"/><rect id="rect994-9-7-7-0-3" width="119.363" height="40.411" x="37.418" y="193.45"/><rect id="rect1544" width="119.363" height="40.411" x="37.418" y="193.45"/><rect id="rect994-1-3-1" width="119.363" height="40.411" x="37.418" y="193.45"/><rect id="rect1679" width="119.363" height="40.411" x="37.418" y="193.45"/><rect id="rect994-1-3-9-2" width="119.363" height="40.411" x="37.418" y="193.45"/><rect id="rect1782" width="119.363" height="40.411" x="37.418" y="193.45"/></defs><metadata id="metadata5"/><g id="layer2"><rect style="fill:#b845fc;fill-opacity:1;stroke-width:2.05673;stroke-linecap:square;paint-order:stroke fill markers" id="rect930" width="106.584" height="105.67" x="-.106" y="0"/></g><g id="layer1" transform="translate(-110.86304,-141.97414)"><g id="g594-3-1-0" transform="matrix(0.14371078,0,0,0.14371078,127.36589,160.35747)" style="fill:#eff0f9;fill-opacity:1;stroke:none;stroke-width:.919854;stroke-miterlimit:4;stroke-dasharray:none;stroke-opacity:1"><g id="g537-8-6-8" style="fill:#eff0f9;fill-opacity:1;stroke:none;stroke-width:.919854;stroke-miterlimit:4;stroke-dasharray:none;stroke-opacity:1"><g id="g535-4-6-4" style="fill:#eff0f9;fill-opacity:1;stroke:none;stroke-width:.919854;stroke-miterlimit:4;stroke-dasharray:none;stroke-opacity:1"><path id="path533-0-4-9" d="m 529.98932,110.11721 -89.997,-91.545995 c -0.052,-0.053 -0.112,-0.094 -0.165,-0.145 -0.125,-0.12 -0.257,-0.232 -0.391,-0.343 -0.153,-0.127 -0.308,-0.25 -0.469,-0.364 -0.134,-0.095 -0.272,-0.183 -0.414,-0.269 -0.18,-0.11 -0.362,-0.211 -0.55,-0.305 -0.076,-0.038 -0.143,-0.087 -0.221,-0.122 -0.07,-0.032 -0.143,-0.049 -0.213,-0.078 -0.194,-0.082 -0.391,-0.152 -0.59,-0.217 -0.154,-0.05 -0.308,-0.099 -0.464,-0.139 -0.195,-0.049 -0.392,-0.085 -0.59,-0.119 -0.162,-0.027 -0.324,-0.057 -0.487,-0.074 -0.197,-0.02 -0.395,-0.023 -0.594,-0.028 -0.164,-0.003 -0.327,-0.012 -0.49,-0.004 -0.197,0.009 -0.394,0.036 -0.591,0.061 -0.165,0.021 -0.329,0.035 -0.492,0.066 -0.185,0.036 -0.368,0.092 -0.552,0.142 -0.171,0.047 -0.343,0.087 -0.511,0.147 -0.027,0.009 -0.054,0.013 -0.081,0.023 -0.153,0.056 -0.292,0.133 -0.439,0.199 -0.163,0.072 -0.328,0.136 -0.486,0.219 -0.196,0.104 -0.377,0.228 -0.562,0.348 -0.121,0.079 -0.248,0.147 -0.366,0.234 -0.296,0.219 -0.575,0.456 -0.834,0.714 -0.002,0.002 -0.005,0.004 -0.008,0.007 l -104.35,104.353995 -22.741,-22.741 c -2.904,-2.901995 -7.61,-2.901995 -10.513,0 -2.903,2.904 -2.903,7.61 0,10.513 l 107.255,107.254 -129.806,129.805 -44.551,-304.162995 34.394,34.395 c 2.904,2.902 7.61,2.902 10.513,0 2.903,-2.904 2.903,-7.61 0,-10.513 l -50.257,-50.257 c -0.024,-0.024 -0.053,-0.042 -0.077,-0.066 -0.248,-0.241 -0.51,-0.468 -0.789,-0.672 -0.038,-0.028 -0.077,-0.052 -0.115,-0.079 -0.29,-0.204 -0.591,-0.392 -0.908,-0.554 -0.009,-0.004 -0.018,-0.008 -0.027,-0.012 -0.313,-0.158 -0.641,-0.29 -0.977,-0.403 -0.033,-0.011 -0.065,-0.024 -0.098,-0.035 -0.32,-0.102 -0.649,-0.18 -0.986,-0.238 -0.059,-0.01 -0.118,-0.021 -0.178,-0.03 -0.283,-0.042 -0.569,-0.075 -0.86,-0.084 L 45.363316,9.5102149 c -3.508,-0.118 -6.666,1.8910001 -8.06,5.1050001 -1.393,3.215 -0.693,6.894 1.785,9.372 l 195.549004,195.548995 -130.691,288.575 c -1.892,4.175 -0.529,9.098 3.24,11.707 1.635,1.132 3.519,1.687 5.393,1.687 2.444,0 4.87,-0.944 6.706,-2.778 l 77.917,-77.917 c 2.903,-2.904 2.903,-7.61 0,-10.513 -2.904,-2.902 -7.61,-2.902 -10.513,0 l -56.992,56.993 109.563,-241.926 16.911,115.452 -36.568,36.567 c -2.903,2.904 -2.903,7.61 0,10.513 2.904,2.902 7.61,2.901 10.513,0 l 196.478,-196.479 c 1.261,-1.261 2.027,-2.934 2.156,-4.713 l 5.382,-73.504 89.49,-6.27 c 3.84,-0.269 7.202,-2.769 8.565,-6.37 1.363,-3.599 0.499,-7.698 -2.198,-10.443 z M 61.021316,24.893215 l 146.645004,4.763 24.348,166.229995 z m 353.105004,177.966995 -4.53,4.531 -74.001,-74.001 90.223,-90.222995 c 0,0.002 -11.692,159.690995 -11.692,159.692995 z m 21.104,-84.639 5.675,-77.512995 70.926,72.145995 z" style="fill:#eff0f9;fill-opacity:1;stroke:none;stroke-width:.919854;stroke-miterlimit:4;stroke-dasharray:none;stroke-opacity:1"/></g></g></g></g></svg>