<svg xmlns="http://www.w3.org/2000/svg" xmlns:svg="http://www.w3.org/2000/svg" id="svg8" width="1280" height="640" version="1.1" viewBox="0 0 338.667 169.333"><defs id="defs2"><rect id="rect1573" width="148.923" height="83.816" x="-32.928" y="70.345"/><rect id="rect1481" width="111.505" height="90.551" x="223.384" y="239.474"/><rect id="rect1226" width="85.687" height="74.461" x="86.809" y="77.829"/><rect id="rect994" width="119.363" height="40.411" x="37.418" y="193.45"/><marker style="overflow:visible" id="Arrow1Lend" orient="auto" refX="0" refY="0"><path style="fill:#000;fill-opacity:1;fill-rule:evenodd;stroke:none;stroke-width:1pt;stroke-opacity:1" id="path1819" d="M 0,0 5,-5 -12.5,0 5,5 Z" transform="matrix(-0.8,0,0,-0.8,-10,0)"/></marker><rect id="rect133" width="192.012" height="60.476" x="6.048" y="117.929"/><rect id="rect133-8" width="192.012" height="60.476" x="6.048" y="117.929"/><rect id="rect245" width="192.012" height="60.476" x="6.048" y="117.929"/><rect id="rect133-8-3" width="192.012" height="60.476" x="6.048" y="117.929"/><rect id="rect373" width="192.012" height="60.476" x="6.048" y="117.929"/><rect id="rect133-8-6" width="192.012" height="60.476" x="6.048" y="117.929"/><rect id="rect2171" width="192.012" height="60.476" x="6.048" y="117.929"/><rect id="rect133-8-3-5" width="192.012" height="60.476" x="6.048" y="117.929"/><rect id="rect2213" width="192.012" height="60.476" x="6.048" y="117.929"/><rect id="rect133-8-6-5" width="192.012" height="60.476" x="6.048" y="117.929"/><rect id="rect1007" width="192.012" height="60.476" x="6.048" y="117.929"/><rect id="rect133-8-3-4" width="192.012" height="60.476" x="6.048" y="117.929"/><rect id="rect1043" width="192.012" height="60.476" x="6.048" y="117.929"/><rect id="rect133-8-3-4-3" width="192.012" height="60.476" x="6.048" y="117.929"/><rect id="rect1124" width="192.012" height="60.476" x="6.048" y="117.929"/><rect id="rect133-8-3-4-7" width="192.012" height="60.476" x="6.048" y="117.929"/><rect id="rect1083" width="192.012" height="60.476" x="6.048" y="117.929"/><rect id="rect133-8-3-4-3-4" width="192.012" height="60.476" x="6.048" y="117.929"/><rect id="rect1086" width="192.012" height="60.476" x="6.048" y="117.929"/><rect id="rect994-1" width="119.363" height="40.411" x="37.418" y="193.45"/><rect id="rect1239" width="119.363" height="40.411" x="37.418" y="193.45"/><rect id="rect994-9" width="119.363" height="40.411" x="37.418" y="193.45"/><rect id="rect1326" width="119.363" height="40.411" x="37.418" y="193.45"/><rect id="rect994-1-2" width="119.363" height="40.411" x="37.418" y="193.45"/><rect id="rect1329" width="119.363" height="40.411" x="37.418" y="193.45"/><rect id="rect994-9-7" width="119.363" height="40.411" x="37.418" y="193.45"/><rect id="rect1494" width="119.363" height="40.411" x="37.418" y="193.45"/><rect id="rect994-9-7-3" width="119.363" height="40.411" x="37.418" y="193.45"/><rect id="rect1586" width="119.363" height="40.411" x="37.418" y="193.45"/><rect id="rect994-9-7-7" width="119.363" height="40.411" x="37.418" y="193.45"/><rect id="rect1101" width="119.363" height="40.411" x="37.418" y="193.45"/><rect id="rect994-9-7-7-0" width="119.363" height="40.411" x="37.418" y="193.45"/><rect id="rect1236" width="119.363" height="40.411" x="37.418" y="193.45"/><rect id="rect994-1-3" width="119.363" height="40.411" x="37.418" y="193.45"/><rect id="rect1370" width="119.363" height="40.411" x="37.418" y="193.45"/><rect id="rect994-1-3-9" width="119.363" height="40.411" x="37.418" y="193.45"/><rect id="rect1457" width="119.363" height="40.411" x="37.418" y="193.45"/><rect id="rect994-9-7-7-0-3" width="119.363" height="40.411" x="37.418" y="193.45"/><rect id="rect1544" width="119.363" height="40.411" x="37.418" y="193.45"/><rect id="rect994-1-3-1" width="119.363" height="40.411" x="37.418" y="193.45"/><rect id="rect1679" width="119.363" height="40.411" x="37.418" y="193.45"/><rect id="rect994-1-3-9-2" width="119.363" height="40.411" x="37.418" y="193.45"/><rect id="rect1782" width="119.363" height="40.411" x="37.418" y="193.45"/></defs><metadata id="metadata5"/><g id="layer1" transform="translate(-50.332285,-141.9457)"><g id="g594-3-1-0" transform="matrix(0.12994076,0,0,0.12994076,249.98016,193.34753)" style="fill:#333;fill-opacity:.6;stroke:none;stroke-width:.919854;stroke-miterlimit:4;stroke-dasharray:none;stroke-opacity:1"><g id="g537-8-6-8" style="fill:#333;fill-opacity:.6;stroke:none;stroke-width:.919854;stroke-miterlimit:4;stroke-dasharray:none;stroke-opacity:1"><g id="g535-4-6-4" style="fill:#333;fill-opacity:.6;stroke:none;stroke-width:.919854;stroke-miterlimit:4;stroke-dasharray:none;stroke-opacity:1"><path id="path533-0-4-9" d="M 501.279,100.612 411.282,9.066 c -0.052,-0.053 -0.112,-0.094 -0.165,-0.145 -0.125,-0.12 -0.257,-0.232 -0.391,-0.343 -0.153,-0.127 -0.308,-0.25 -0.469,-0.364 -0.134,-0.095 -0.272,-0.183 -0.414,-0.269 -0.18,-0.11 -0.362,-0.211 -0.55,-0.305 -0.076,-0.038 -0.143,-0.087 -0.221,-0.122 -0.07,-0.032 -0.143,-0.049 -0.213,-0.078 -0.194,-0.082 -0.391,-0.152 -0.59,-0.217 -0.154,-0.05 -0.308,-0.099 -0.464,-0.139 -0.195,-0.049 -0.392,-0.085 -0.59,-0.119 -0.162,-0.027 -0.324,-0.057 -0.487,-0.074 -0.197,-0.02 -0.395,-0.023 -0.594,-0.028 -0.164,-0.003 -0.327,-0.012 -0.49,-0.004 -0.197,0.009 -0.394,0.036 -0.591,0.061 -0.165,0.021 -0.329,0.035 -0.492,0.066 -0.185,0.036 -0.368,0.092 -0.552,0.142 -0.171,0.047 -0.343,0.087 -0.511,0.147 -0.027,0.009 -0.054,0.013 -0.081,0.023 -0.153,0.056 -0.292,0.133 -0.439,0.199 -0.163,0.072 -0.328,0.136 -0.486,0.219 -0.196,0.104 -0.377,0.228 -0.562,0.348 -0.121,0.079 -0.248,0.147 -0.366,0.234 -0.296,0.219 -0.575,0.456 -0.834,0.714 -0.002,0.002 -0.005,0.004 -0.008,0.007 L 296.372,113.373 273.631,90.632 c -2.904,-2.902 -7.61,-2.902 -10.513,0 -2.903,2.904 -2.903,7.61 0,10.513 L 370.373,208.399 240.567,338.204 196.016,34.041 230.41,68.436 c 2.904,2.902 7.61,2.902 10.513,0 2.903,-2.904 2.903,-7.61 0,-10.513 L 190.666,7.666 C 190.642,7.642 190.613,7.624 190.589,7.6 190.341,7.359 190.079,7.132 189.8,6.928 189.762,6.9 189.723,6.876 189.685,6.849 189.395,6.645 189.094,6.457 188.777,6.295 188.768,6.291 188.759,6.287 188.75,6.283 188.437,6.125 188.109,5.993 187.773,5.88 187.74,5.869 187.708,5.856 187.675,5.845 c -0.32,-0.102 -0.649,-0.18 -0.986,-0.238 -0.059,-0.01 -0.118,-0.021 -0.178,-0.03 -0.283,-0.042 -0.569,-0.075 -0.86,-0.084 L 16.653,0.005 C 13.145,-0.113 9.987,1.896 8.593,5.11 7.2,8.325 7.9,12.004 10.378,14.482 L 205.927,210.031 75.236,498.606 c -1.892,4.175 -0.529,9.098 3.24,11.707 1.635,1.132 3.519,1.687 5.393,1.687 2.444,0 4.87,-0.944 6.706,-2.778 l 77.917,-77.917 c 2.903,-2.904 2.903,-7.61 0,-10.513 -2.904,-2.902 -7.61,-2.902 -10.513,0 l -56.992,56.993 109.563,-241.926 16.911,115.452 -36.568,36.567 c -2.903,2.904 -2.903,7.61 0,10.513 2.904,2.902 7.61,2.901 10.513,0 L 397.884,201.912 c 1.261,-1.261 2.027,-2.934 2.156,-4.713 l 5.382,-73.504 89.49,-6.27 c 3.84,-0.269 7.202,-2.769 8.565,-6.37 1.363,-3.599 0.499,-7.698 -2.198,-10.443 z M 32.311,15.388 l 146.645,4.763 24.348,166.23 z m 353.105,177.967 -4.53,4.531 -74.001,-74.001 90.223,-90.223 c 0,0.002 -11.692,159.691 -11.692,159.693 z m 21.104,-84.639 5.675,-77.513 70.926,72.146 z" style="fill:#333;fill-opacity:.6;stroke:none;stroke-width:.919854;stroke-miterlimit:4;stroke-dasharray:none;stroke-opacity:1"/></g></g></g><g id="text992-6-9-6" aria-label="falco" transform="matrix(2.3905315,0,0,2.3905315,32.697081,-269.83701)" style="font-size:10.5833px;line-height:1.25;font-family:Quicksand;-inkscape-font-specification:Quicksand;white-space:pre;shape-inside:url(#rect994-1-3-9);fill:#333;fill-opacity:1"><path style="font-style:normal;font-variant:normal;font-weight:300;font-stretch:normal;font-size:25.4px;font-family:Quicksand;-inkscape-font-specification:'Quicksand Light';fill:#333;fill-opacity:1" id="path951" d="m 43.488569,198.27522 q 0.3048,0 0.7112,0.0508 0.4318,0.0508 0.7366,0.2032 0.3302,0.1524 0.3302,0.4572 0,0.1778 -0.1524,0.3556 -0.127,0.1524 -0.3302,0.1524 -0.254,0 -0.6096,-0.1524 -0.3556,-0.1524 -0.7874,-0.1524 -0.508,0 -0.9144,0.2286 -0.381,0.2286 -0.6096,0.7112 -0.2032,0.4572 -0.2032,1.1938 v 15.113 q 0,0.2032 -0.1524,0.3556 -0.1524,0.1524 -0.3556,0.1524 -0.2286,0 -0.381,-0.1524 -0.127,-0.1524 -0.127,-0.3556 v -15.113 q 0,-1.5748 0.8382,-2.3114 0.8382,-0.7366 2.0066,-0.7366 z m 1.1684,6.1468 q 0.2032,0 0.3302,0.1524 0.1524,0.127 0.1524,0.3302 0,0.2032 -0.1524,0.3556 -0.127,0.127 -0.3302,0.127 h -6.0452 q -0.1778,0 -0.3302,-0.1524 -0.1524,-0.1524 -0.1524,-0.3302 0,-0.2286 0.1524,-0.3556 0.1524,-0.127 0.3302,-0.127 z"/><path style="font-style:normal;font-variant:normal;font-weight:300;font-stretch:normal;font-size:25.4px;font-family:Quicksand;-inkscape-font-specification:'Quicksand Light';fill:#333;fill-opacity:1" id="path953" d="m 58.347538,204.26962 q 0.2286,0 0.3556,0.1524 0.1524,0.1524 0.1524,0.3556 v 11.6586 q 0,0.2032 -0.1524,0.3556 -0.1524,0.1524 -0.3556,0.1524 -0.2286,0 -0.381,-0.1524 -0.127,-0.1524 -0.127,-0.3556 v -3.6068 l 0.4064,-0.3302 q 0,0.8128 -0.4064,1.651 -0.4064,0.8382 -1.1176,1.524 -0.7112,0.6858 -1.6764,1.1176 -0.9652,0.4064 -2.0828,0.4064 -1.7018,0 -3.048,-0.889 -1.3208,-0.889 -2.0828,-2.413 -0.761999,-1.524 -0.761999,-3.429 0,-1.9304 0.761999,-3.4036 0.7874,-1.4986 2.1082,-2.3368 1.3462,-0.8636 3.0226,-0.8636 1.0922,0 2.0574,0.4064 0.9652,0.381 1.6764,1.0922 0.7366,0.7112 1.143,1.6764 0.4064,0.9398 0.4064,2.0574 l -0.4064,-0.635 v -3.683 q 0,-0.2032 0.127,-0.3556 0.1524,-0.1524 0.381,-0.1524 z m -5.334,11.9634 q 1.4224,0 2.54,-0.7366 1.1176,-0.762 1.7526,-2.0574 0.635,-1.3208 0.635,-2.9718 0,-1.5748 -0.635,-2.8448 -0.635,-1.2954 -1.7526,-2.032 -1.1176,-0.762 -2.54,-0.762 -1.397,0 -2.5146,0.7366 -1.1176,0.7112 -1.778,1.9812 -0.635,1.27 -0.635,2.921 0,1.651 0.635,2.9718 0.635,1.2954 1.7526,2.0574 1.1176,0.7366 2.54,0.7366 z"/><path style="font-style:normal;font-variant:normal;font-weight:300;font-stretch:normal;font-size:25.4px;font-family:Quicksand;-inkscape-font-specification:'Quicksand Light';fill:#333;fill-opacity:1" id="path955" d="m 64.214922,216.43622 q 0,0.2032 -0.1524,0.3556 -0.1524,0.1524 -0.3556,0.1524 -0.2286,0 -0.381,-0.1524 -0.127,-0.1524 -0.127,-0.3556 v -17.78 q 0,-0.2032 0.1524,-0.3556 0.1524,-0.1524 0.3556,-0.1524 0.2286,0 0.3556,0.1524 0.1524,0.1524 0.1524,0.3556 z"/><path style="font-style:normal;font-variant:normal;font-weight:300;font-stretch:normal;font-size:25.4px;font-family:Quicksand;-inkscape-font-specification:'Quicksand Light';fill:#333;fill-opacity:1" id="path957" d="m 73.816106,203.86322 q 1.143,0 2.1336,0.254 1.016,0.254 1.6256,0.6858 0.635,0.4064 0.635,0.8636 0,0.1778 -0.1524,0.3556 -0.127,0.1524 -0.3302,0.1524 -0.2794,0 -0.4572,-0.1524 -0.1524,-0.1524 -0.3302,-0.3556 -0.1778,-0.2286 -0.5588,-0.4064 -0.3556,-0.1778 -1.016,-0.3048 -0.635,-0.127 -1.5748,-0.127 -1.4732,0 -2.6924,0.762 -1.2192,0.762 -1.9558,2.0574 -0.7112,1.27 -0.7112,2.8702 0,1.6256 0.6604,2.921 0.6858,1.2954 1.8796,2.0574 1.2192,0.7366 2.8194,0.7366 1.143,0 1.7272,-0.2032 0.6096,-0.2286 1.0414,-0.4826 0.5334,-0.3048 0.7366,-0.5842 0.2032,-0.2794 0.4826,-0.2794 0.2032,0 0.3048,0.127 0.127,0.127 0.127,0.3302 0,0.3048 -0.5588,0.8128 -0.5588,0.4826 -1.5748,0.8636 -0.9906,0.381 -2.3622,0.381 -1.8542,0 -3.2766,-0.8636 -1.4224,-0.889 -2.2352,-2.3876 -0.7874,-1.524 -0.7874,-3.429 0,-1.778 0.7874,-3.2766 0.8128,-1.524 2.2352,-2.4384 1.4478,-0.9398 3.3782,-0.9398 z"/><path style="font-style:normal;font-variant:normal;font-weight:300;font-stretch:normal;font-size:25.4px;font-family:Quicksand;-inkscape-font-specification:'Quicksand Light';fill:#333;fill-opacity:1" id="path959" d="m 92.967669,210.54342 q 0,1.8796 -0.8128,3.4036 -0.8128,1.4986 -2.2352,2.3876 -1.397,0.8636 -3.2004,0.8636 -1.778,0 -3.2004,-0.8636 -1.4224,-0.889 -2.2606,-2.3876 -0.8128,-1.524 -0.8128,-3.4036 0,-1.905 0.8128,-3.4036 0.8382,-1.524 2.2606,-2.3876 1.4224,-0.889 3.2004,-0.889 1.8034,0 3.2004,0.889 1.4224,0.8636 2.2352,2.3876 0.8128,1.4986 0.8128,3.4036 z m -1.016,0 q 0,-1.651 -0.6858,-2.921 -0.6604,-1.2954 -1.8542,-2.032 -1.1684,-0.762 -2.6924,-0.762 -1.4986,0 -2.6924,0.762 -1.1938,0.7366 -1.8796,2.032 -0.6858,1.27 -0.6858,2.921 0,1.6256 0.6858,2.921 0.6858,1.27 1.8796,2.032 1.1938,0.7366 2.6924,0.7366 1.524,0 2.6924,-0.7366 1.1938,-0.762 1.8542,-2.032 0.6858,-1.2954 0.6858,-2.921 z"/></g></g></svg>